<svg id="Layer_1" data-name="Layer 1" xmlns="http://www.w3.org/2000/svg" viewBox="0 0 876.63 254.41"><defs><style>.cls-1{fill:rgba(255, 255, 255, 0.5);}</style></defs><path class="cls-1" d="M116.57,100A53.63,53.63,0,0,0,133,81.55a49.06,49.06,0,0,0,5.92-23.69,60.94,60.94,0,0,0-2.31-16.1A47.64,47.64,0,0,0,129.94,27a65.32,65.32,0,0,0-8.54-9.87,75,75,0,0,0-11-8.66A60.23,60.23,0,0,0,98.16,2.29,36.46,36.46,0,0,0,85.66,0H.38V170.12H47.3L45.9,74.53h-.14V37.91H72.29a19.64,19.64,0,0,1,7.45,1.43A19.13,19.13,0,0,1,90,49a17.55,17.55,0,0,1,0,14.38,19.28,19.28,0,0,1-4.16,5.78,19.48,19.48,0,0,1-6.14,3.92,19.82,19.82,0,0,1-7.45,1.41H51.13l24.4,43h.27l29.6,52.62h51.07Z"/><path class="cls-1" d="M309.73,0V170.12H174V129.56h91.42V105.22H174V64.66h91.42V40.33H174V0Z"/><path class="cls-1" d="M408,170.12H331.87V0H408a83.64,83.64,0,0,1,33.32,6.68,87.16,87.16,0,0,1,27.19,18.2A84.89,84.89,0,0,1,486.77,52a83.11,83.11,0,0,1,6.68,33.1,83.12,83.12,0,0,1-6.68,33.11,85,85,0,0,1-18.31,27.08,87,87,0,0,1-27.19,18.19A83.48,83.48,0,0,1,408,170.12Zm-5.26-128.7H376.6v87.26h26.09a43.32,43.32,0,0,0,40.45-26.63,44.18,44.18,0,0,0,0-34,43.51,43.51,0,0,0-40.45-26.64Z"/><path class="cls-1" d="M647.8,170.12V82.64l-36.39,60.08a3.38,3.38,0,0,1-2.2,1.75,9.91,9.91,0,0,1-2.63.44,10.53,10.53,0,0,1-2.85-.44,3.36,3.36,0,0,1-2.19-1.75L565.15,82.64v87.48H520.64V0H562.3A4.55,4.55,0,0,1,566,2l40.34,67.31L646.92,2a4.41,4.41,0,0,1,3.51-2h41.88V170.12Z"/><path class="cls-1" d="M813.33,0H773.21L710.28,170.12h48l8.77-23.46L779.79,107,793.38,62l13.37,45,12.72,39.68,8.77,23.46h48Z"/><rect class="cls-1" x="632.47" y="236.87" width="17.43" height="17.43"/><path class="cls-1" d="M660.21,254.13V189.78h17.33v64.35Z"/><path class="cls-1" d="M719.89,254.3a31.35,31.35,0,0,1-12.6-2.55,32.28,32.28,0,0,1-10.2-7,33.45,33.45,0,0,1-6.87-10.28,32.08,32.08,0,0,1,0-24.88,33.45,33.45,0,0,1,6.87-10.28,32.45,32.45,0,0,1,10.2-7,31.19,31.19,0,0,1,12.6-2.55A31.69,31.69,0,0,1,731.66,192a35.11,35.11,0,0,1,10.44,6.48l-12.56,11a16.34,16.34,0,0,0-9.57-3.22A14.88,14.88,0,0,0,709,211a16.9,16.9,0,0,0-3.22,5.07,15.72,15.72,0,0,0-1.17,6,15.9,15.9,0,0,0,1.17,6.08,16.35,16.35,0,0,0,3.22,5,15.87,15.87,0,0,0,4.83,3.45,14.26,14.26,0,0,0,6.08,1.29,14.76,14.76,0,0,0,7-1.72,17.64,17.64,0,0,0,5.69-4.87l12.95,10.52A34.17,34.17,0,0,1,734.06,251,31.78,31.78,0,0,1,719.89,254.3Z"/><path class="cls-1" d="M777.5,254.3a31.73,31.73,0,0,1-12.64-2.52,32.24,32.24,0,0,1-17.23-17.1,32.21,32.21,0,0,1,0-25.12,32.39,32.39,0,0,1,7-10.24,33.32,33.32,0,0,1,10.28-6.91,32.48,32.48,0,0,1,25.23,0,33.15,33.15,0,0,1,10.32,6.91,32.39,32.39,0,0,1,7,10.24,32.21,32.21,0,0,1,0,25.12,32.13,32.13,0,0,1-17.27,17.1A31.84,31.84,0,0,1,777.5,254.3Zm0-48.9a14.86,14.86,0,0,0-6.4,1.38,16.17,16.17,0,0,0-5.06,3.64,17.32,17.32,0,0,0-3.34,18.06,16.67,16.67,0,0,0,3.34,5.33,16,16,0,0,0,5.06,3.65,15.61,15.61,0,0,0,12.79,0,16,16,0,0,0,5.06-3.65,16.67,16.67,0,0,0,3.34-5.33A17.22,17.22,0,0,0,789,210.42a16.17,16.17,0,0,0-5.06-3.64A14.85,14.85,0,0,0,777.5,205.4Z"/><path class="cls-1" d="M859.39,254.05l-22.31-34.33v34.33H819.92V189.78H837l22.39,34.66V189.78h17.24v64.27Z"/></svg>