<?xml version="1.0" encoding="utf-8"?>
<!-- Generator: Adobe Illustrator 25.3.1, SVG Export Plug-In . SVG Version: 6.00 Build 0)  -->
<svg version="1.1" id="Layer_1" xmlns="http://www.w3.org/2000/svg" xmlns:xlink="http://www.w3.org/1999/xlink" x="0px" y="0px"
	 viewBox="0 0 1154.84 1154.84" style="enable-background:new 0 0 1154.84 1154.84;" xml:space="preserve">
<style type="text/css">
	.st0{fill:url(#SVGID_1_);}
	.st1{fill:#FFFFFF;}
	.st2{fill:url(#SVGID_2_);}
</style>
<g>
	
		<linearGradient id="SVGID_1_" gradientUnits="userSpaceOnUse" x1="58.8038" y1="679.2488" x2="627.4962" y2="679.2488" gradientTransform="matrix(0.9677 -0.2522 0.2522 0.9677 -147.8145 105.5846)">
		<stop  offset="0" style="stop-color:#EC223B"/>
		<stop  offset="1" style="stop-color:#942B1F"/>
	</linearGradient>
	<path class="st0" d="M654.03,892.39l-453.54,118.2c-26.72,6.96-54.03-9.05-60.99-35.77L21.29,521.28
		c-6.96-26.72,9.05-54.03,35.77-60.99l453.54-118.2c26.72-6.96,54.03,9.05,60.99,35.77l118.2,453.54
		C696.77,858.11,680.75,885.42,654.03,892.39z"/>
	<g>
		<path class="st1" d="M283.7,667.63c-11.93,3.11-23.65,3.75-35.16,1.94c-11.51-1.81-22.14-5.64-31.88-11.47
			c-9.74-5.83-18.18-13.33-25.31-22.51c-7.13-9.17-12.22-19.59-15.25-31.25s-3.68-23.22-1.94-34.72c1.75-11.49,5.45-22.16,11.1-32
			c5.66-9.84,13.06-18.37,22.22-25.57c9.16-7.2,19.7-12.36,31.64-15.47c10.82-2.82,21.74-3.56,32.76-2.2
			c11.02,1.35,21.73,4.67,32.15,9.95l-25.7,37.81c-9.53-3.59-18.73-4.23-27.61-1.92c-5.83,1.52-10.95,4.04-15.36,7.56
			c-4.42,3.52-7.92,7.7-10.51,12.52c-2.6,4.83-4.27,10.04-5.03,15.65c-0.76,5.61-0.42,11.19,1.03,16.73
			c1.48,5.69,3.92,10.79,7.32,15.31c3.4,4.52,7.4,8.22,12,11.09c4.6,2.88,9.66,4.81,15.18,5.82c5.52,1.01,11.19,0.75,17.02-0.77
			c6.66-1.74,12.47-4.88,17.43-9.43c4.96-4.55,8.87-10.16,11.72-16.83l41.6,18.94c-5.85,12.79-13.89,23.59-24.11,32.39
			C308.79,658.02,297.02,664.16,283.7,667.63z"/>
		<path class="st1" d="M459.44,486.72l-44.32,11.55l31.67,121.52l-43.91,11.44l-31.67-121.52l-44.32,11.55l-3.67-2.15l-9.65-37.04
			l138.38-36.06l9.65,37.04L459.44,486.72z"/>
		<path class="st1" d="M350.68,852.14l-41.11-42.62l-27.26,7.1l13.22,49.89l-44.53,11.61l-42.08-161.48l80.95-21.1
			c3.88-1.01,8.03-1.31,12.43-0.91c4.4,0.41,8.79,1.34,13.17,2.79c4.38,1.45,8.56,3.29,12.55,5.51c3.99,2.22,7.5,4.64,10.56,7.25
			c3.82,3.3,7.16,7.43,10.01,12.39c2.85,4.96,4.91,9.87,6.17,14.72c2.1,8.05,2.18,16.03,0.24,23.94
			c-1.94,7.91-5.62,15.1-11.05,21.55l55.23,56.72L350.68,852.14z M286.56,734.85l-25.18,6.56l9.06,34.75l25.18-6.56
			c2.5-0.65,4.74-1.71,6.73-3.19c1.98-1.47,3.61-3.22,4.86-5.24c1.25-2.02,2.09-4.19,2.52-6.51c0.43-2.32,0.32-4.72-0.32-7.21
			c-0.65-2.48-1.73-4.63-3.24-6.45c-1.51-1.81-3.3-3.3-5.38-4.45s-4.35-1.88-6.8-2.21C291.53,734.04,289.05,734.2,286.56,734.85z"/>
		<path class="st1" d="M421.84,833.6l-42.08-161.48l44.74-11.66l31.67,121.52l84.9-22.13l10.41,39.95L421.84,833.6z"/>
	</g>
	
		<linearGradient id="SVGID_2_" gradientUnits="userSpaceOnUse" x1="500.2423" y1="35.0634" x2="1194.0281" y2="739.1427" gradientTransform="matrix(0.9885 0.1511 -0.1511 0.9885 35.4477 -56.5415)">
		<stop  offset="0" style="stop-color:#EC223B"/>
		<stop  offset="1" style="stop-color:#942B1F"/>
	</linearGradient>
	<path class="st2" d="M1006.96,776.03L543.65,705.2c-27.3-4.17-46.04-29.68-41.87-56.98l70.82-463.31
		c4.17-27.3,29.68-46.04,56.98-41.87l463.31,70.82c27.3,4.17,46.04,29.68,41.87,56.98l-70.82,463.31
		C1059.77,761.46,1034.26,780.2,1006.96,776.03z"/>
	<g>
		<path class="st1" d="M884.47,497.82c14.37-7.2,26.21-16.97,35.55-29.35c9.36-12.38,15.22-26.4,17.62-42.05
			c1.44-9.43,1.53-19.56,0.28-30.38c-1.23-10.82-3.97-20.55-8.17-29.2c-3.37-6.86-7.69-13.73-13-20.62
			c-5.29-6.87-11.22-13.24-17.78-19.07c-6.57-5.83-13.55-10.77-20.94-14.8c-7.39-4.03-14.86-6.61-22.41-7.77l-157.41-24.06
			l-48,314.02l86.6,13.24l24.39-176.84l-0.26-0.04l10.33-67.58l48.97,7.49c4.85,0.74,9.3,2.32,13.35,4.73
			c4.05,2.4,7.47,5.39,10.23,8.97c2.77,3.57,4.78,7.52,6.05,11.83c1.29,4.29,1.54,8.88,0.81,13.69c-0.74,4.85-2.35,9.13-4.87,12.86
			c-2.5,3.73-5.6,6.89-9.31,9.49c-3.71,2.58-7.86,4.41-12.44,5.51c-4.58,1.08-9.3,1.24-14.15,0.49l-39.06-5.97l32.91,86.2l0.49,0.08
			l39.79,105.48l94.27,14.41L884.47,497.82z"/>
	</g>
</g>
</svg>
