<svg id="Layer_1" data-name="Layer 1" xmlns="http://www.w3.org/2000/svg" viewBox="0 0 878.85 257.12"><defs><style>.cls-1{fill:rgba(255, 255, 255, 0.5);}</style></defs><path class="cls-1" d="M117.68,101.32A53.32,53.32,0,0,0,134.12,82.9a48.92,48.92,0,0,0,5.93-23.68,61.07,61.07,0,0,0-2.31-16.11,47.64,47.64,0,0,0-6.69-14.8,64.85,64.85,0,0,0-8.55-9.87,73.62,73.62,0,0,0-11-8.65A60.61,60.61,0,0,0,99.26,3.64a36.64,36.64,0,0,0-12.49-2.3H1.49V171.48H48.4L47,75.88h-.14V39.27H73.4a19.64,19.64,0,0,1,7.45,1.42,19.23,19.23,0,0,1,10.3,9.7,17.58,17.58,0,0,1,0,14.39A19.11,19.11,0,0,1,87,70.55a19.31,19.31,0,0,1-6.14,3.92,19.63,19.63,0,0,1-7.45,1.41H52.24l24.4,43h.27l29.6,52.63h51.07Z"/><path class="cls-1" d="M310.84,1.34V171.48H175.13V130.92h91.42V106.58H175.13V66h91.42V41.68H175.13V1.34Z"/><path class="cls-1" d="M409.06,171.48H333V1.34h76.08A83.48,83.48,0,0,1,442.38,8a87,87,0,0,1,27.19,18.2A85,85,0,0,1,487.88,53.3a83.15,83.15,0,0,1,6.68,33.11,83.07,83.07,0,0,1-6.68,33.1,84.78,84.78,0,0,1-18.31,27.08,87,87,0,0,1-27.19,18.2A83.48,83.48,0,0,1,409.06,171.48Zm-5.27-128.7H377.7V130h26.09a43.3,43.3,0,0,0,40.45-26.64,44.15,44.15,0,0,0,0-34,43.48,43.48,0,0,0-40.45-26.64Z"/><path class="cls-1" d="M648.91,171.48V84l-36.39,60.07a3.35,3.35,0,0,1-2.2,1.75,9.52,9.52,0,0,1-2.63.44,10.16,10.16,0,0,1-2.85-.44,3.34,3.34,0,0,1-2.19-1.75L566.26,84v87.48H521.75V1.34h41.66a4.59,4.59,0,0,1,3.72,2l40.34,67.31L648,3.31a4.43,4.43,0,0,1,3.51-2h41.88V171.48Z"/><path class="cls-1" d="M814.44,1.34H774.32L711.39,171.48h48L768.17,148l12.72-39.69,13.6-44.94,13.37,44.94L820.58,148l8.77,23.46h48Z"/><rect class="cls-1" x="626.11" y="238.22" width="17.43" height="17.43"/><path class="cls-1" d="M702,255.51v-33.1l-13.77,22.73a1.25,1.25,0,0,1-.83.67,3.73,3.73,0,0,1-1,.16,3.86,3.86,0,0,1-1.07-.16,1.23,1.23,0,0,1-.83-.67l-13.78-22.73v33.1H653.87V191.14h15.77a1.76,1.76,0,0,1,1.41.74l15.26,25.47,15.35-25.47a1.67,1.67,0,0,1,1.33-.74h15.84v64.37Z"/><path class="cls-1" d="M751.18,191.3H766.7l24,64.21H771.43L759,222.25l-12.44,33.26H727.29Z"/><path class="cls-1" d="M796.31,255.51V191.14h17.34v64.37Z"/><path class="cls-1" d="M825.68,255.51V191.14h17.84v48.45h33.84v15.92Z"/></svg>