<svg id="Layer_1" data-name="Layer 1" xmlns="http://www.w3.org/2000/svg" viewBox="0 0 878.85 254.18"><defs><style>.cls-1{fill:rgba(255, 255, 255, 0.5);}</style></defs><path class="cls-1" d="M117.68,99.85a53.38,53.38,0,0,0,16.44-18.41,49,49,0,0,0,5.93-23.69,61.07,61.07,0,0,0-2.31-16.11,47.75,47.75,0,0,0-6.69-14.8A64.8,64.8,0,0,0,122.5,17a73.68,73.68,0,0,0-11-8.66A60.05,60.05,0,0,0,99.26,2.18,36.4,36.4,0,0,0,86.77-.12H1.49V170H48.4L47,74.41h-.14V37.8H73.4a19.45,19.45,0,0,1,7.45,1.43,19.16,19.16,0,0,1,10.3,9.69,17.58,17.58,0,0,1,0,14.39A19.11,19.11,0,0,1,87,69.08,19.33,19.33,0,0,1,80.85,73a19.82,19.82,0,0,1-7.45,1.4H52.24l24.4,43h.27L106.51,170h51.07Z"/><path class="cls-1" d="M310.84-.13V170H175.13V129.45h91.42V105.11H175.13V64.55h91.42V40.22H175.13V-.13Z"/><path class="cls-1" d="M409.06,170H333V-.13h76.08a83.48,83.48,0,0,1,33.32,6.69,87,87,0,0,1,27.19,18.2,84.89,84.89,0,0,1,18.31,27.08,83.11,83.11,0,0,1,6.68,33.1,83.12,83.12,0,0,1-6.68,33.11,84.85,84.85,0,0,1-18.31,27.07,87,87,0,0,1-27.19,18.2A83.48,83.48,0,0,1,409.06,170Zm-5.27-128.7H377.7v87.26h26.09a43.3,43.3,0,0,0,40.45-26.64,44.15,44.15,0,0,0,0-34,43.48,43.48,0,0,0-40.45-26.64Z"/><path class="cls-1" d="M648.91,170V82.53L612.52,142.6a3.37,3.37,0,0,1-2.2,1.76,9.91,9.91,0,0,1-2.63.44,10.53,10.53,0,0,1-2.85-.44,3.35,3.35,0,0,1-2.19-1.76L566.26,82.53V170H521.75V-.13h41.66a4.58,4.58,0,0,1,3.72,2l40.34,67.31L648,1.85a4.41,4.41,0,0,1,3.51-2h41.88V170Z"/><path class="cls-1" d="M814.44-.12H774.32L711.39,170h48l8.76-23.46,12.72-39.68,13.6-44.95,13.37,45,12.72,39.68L829.35,170h48Z"/><rect class="cls-1" x="521.75" y="236.75" width="17.43" height="17.43"/><path class="cls-1" d="M599.51,254.3V221.07l-13.83,22.82a1.27,1.27,0,0,1-.83.66,3.79,3.79,0,0,1-1,.17,4,4,0,0,1-1.08-.17,1.29,1.29,0,0,1-.84-.66l-13.82-22.82V254.3H551.2V189.67H567a1.74,1.74,0,0,1,1.41.75L583.77,216l15.4-25.57a1.69,1.69,0,0,1,1.34-.75h15.9V254.3Z"/><path class="cls-1" d="M666.55,254.18a31.67,31.67,0,0,1-12.62-2.51,32.16,32.16,0,0,1-17.21-17.08,32.23,32.23,0,0,1,0-25.08,32.32,32.32,0,0,1,6.94-10.23,33.25,33.25,0,0,1,10.27-6.9,32.5,32.5,0,0,1,25.19,0,33.08,33.08,0,0,1,10.31,6.9,32.32,32.32,0,0,1,6.94,10.23,32.23,32.23,0,0,1,0,25.08,32.06,32.06,0,0,1-17.25,17.08A31.7,31.7,0,0,1,666.55,254.18Zm0-48.83a14.85,14.85,0,0,0-6.39,1.38,16.17,16.17,0,0,0-5.06,3.64,17.3,17.3,0,0,0,0,23.36,16.17,16.17,0,0,0,5.06,3.64,15.56,15.56,0,0,0,12.77,0,16.17,16.17,0,0,0,5.06-3.64,17.25,17.25,0,0,0,0-23.36,16.17,16.17,0,0,0-5.06-3.64A14.84,14.84,0,0,0,666.55,205.35Z"/><path class="cls-1" d="M749.91,254.3H734.33l-24.06-64.46h19.32l12.49,33.39,12.49-33.39h19.32Z"/><path class="cls-1" d="M788.72,254.3V189.67h17.4V254.3Z"/><path class="cls-1" d="M877.74,189.67V254.3H826.19V238.89h34.73v-9.24H826.19V214.24h34.73V205H826.19V189.67Z"/></svg>