<svg id="Layer_1" data-name="Layer 1" xmlns="http://www.w3.org/2000/svg" viewBox="0 0 878.85 257.92"><defs><style>.cls-1{fill:rgba(255, 255, 255, 0.5);}</style></defs><path class="cls-1" d="M117.68,101.72a53.38,53.38,0,0,0,16.44-18.41,49,49,0,0,0,5.93-23.69,61.07,61.07,0,0,0-2.31-16.11,47.75,47.75,0,0,0-6.69-14.8,65.28,65.28,0,0,0-8.55-9.86,73.68,73.68,0,0,0-11-8.66A60.05,60.05,0,0,0,99.26,4.05a36.4,36.4,0,0,0-12.49-2.3H1.49V171.88H48.4L47,76.28h-.14V39.67H73.4a19.64,19.64,0,0,1,7.45,1.43,19.13,19.13,0,0,1,10.3,9.7,17.55,17.55,0,0,1,0,14.38A19.11,19.11,0,0,1,87,71a19.33,19.33,0,0,1-6.14,3.93,19.82,19.82,0,0,1-7.45,1.4H52.24l24.4,43h.27l29.6,52.62h51.07Z"/><path class="cls-1" d="M310.84,1.75V171.88H175.13V131.32h91.42V107H175.13V66.42h91.42V42.09H175.13V1.75Z"/><path class="cls-1" d="M409.06,171.88H333V1.75h76.08a83.64,83.64,0,0,1,33.32,6.68,87.16,87.16,0,0,1,27.19,18.2,84.89,84.89,0,0,1,18.31,27.08,83.11,83.11,0,0,1,6.68,33.1,83.12,83.12,0,0,1-6.68,33.11A85,85,0,0,1,469.57,147a87,87,0,0,1-27.19,18.19A83.48,83.48,0,0,1,409.06,171.88Zm-5.27-128.7H377.7v87.26h26.09a43.26,43.26,0,0,0,40.45-26.64,44.15,44.15,0,0,0,0-34,43.48,43.48,0,0,0-40.45-26.64Z"/><path class="cls-1" d="M648.91,171.88V84.4l-36.39,60.07a3.37,3.37,0,0,1-2.2,1.76,9.91,9.91,0,0,1-2.63.44,10.53,10.53,0,0,1-2.85-.44,3.35,3.35,0,0,1-2.19-1.76L566.26,84.4v87.48H521.75V1.75h41.66a4.57,4.57,0,0,1,3.72,2L607.47,71,648,3.72a4.4,4.4,0,0,1,3.51-2h41.88V171.88Z"/><path class="cls-1" d="M814.44,1.75H774.32L711.39,171.88h48l8.76-23.46,12.72-39.68,13.6-44.95,13.37,44.95,12.72,39.68,8.77,23.46h48Z"/><rect class="cls-1" x="521.75" y="238.62" width="17.43" height="17.43"/><path class="cls-1" d="M598.38,255.86V225.52L586.56,245a2.28,2.28,0,0,1-1.28,1,4.76,4.76,0,0,1-1.37.24,4.7,4.7,0,0,1-1.29-.24,2.34,2.34,0,0,1-1.28-1l-11.82-19.5v30.34H551.2V191h16.35a2.62,2.62,0,0,1,2.17,1.18l14.19,23.64,14.28-23.64a2.24,2.24,0,0,1,2.07-1.18h16.35v64.91Z"/><path class="cls-1" d="M691.52,231.82a24.23,24.23,0,0,1-1.48,8.52,25.12,25.12,0,0,1-4.09,7.19,27.37,27.37,0,0,1-6.2,5.57,28,28,0,0,1-7.74,3.54q-1.77.5-3.69.84a21.79,21.79,0,0,1-7.78,0q-1.92-.35-3.69-.84a27.29,27.29,0,0,1-7.69-3.54,28.71,28.71,0,0,1-6.2-5.57,24.3,24.3,0,0,1-5.62-15.71V191h19.21v39.89a6.52,6.52,0,0,0,.64,2.9,7.58,7.58,0,0,0,1.72,2.32,8.44,8.44,0,0,0,2.52,1.57,7.8,7.8,0,0,0,6,0,8.44,8.44,0,0,0,2.52-1.57,7.58,7.58,0,0,0,1.72-2.32,6.52,6.52,0,0,0,.64-2.9V191h19.21Z"/><path class="cls-1" d="M733.92,257.92a51.63,51.63,0,0,1-12.65-1.57,62.61,62.61,0,0,1-12-4.34.85.85,0,0,1-.3-.09,3.5,3.5,0,0,0-.49-.2,2.51,2.51,0,0,1-.74-.64,1.08,1.08,0,0,1-.24-.54c0-.07.36-.77,1.08-2.12s1.58-2.87,2.56-4.58q1.38-2.26,2.56-4.38c.79-1.41,1.45-2.55,2-3.4l1.63.74a9.14,9.14,0,0,1,1,.54,47.59,47.59,0,0,0,8.67,3.35,34.21,34.21,0,0,0,9.06,1.18h1.33a8.79,8.79,0,0,0,1.33-.1,8.45,8.45,0,0,0,2.66-.39,5.86,5.86,0,0,0,2-1.38,3.74,3.74,0,0,0,.84-2.66,2.39,2.39,0,0,0-1-2,11.18,11.18,0,0,0-2.07-1.23c-.46-.2-.88-.36-1.28-.49a18.37,18.37,0,0,0-3.39-1c-1.15-.23-2.32-.47-3.5-.74-1.58-.33-3.12-.67-4.63-1s-3-.74-4.43-1.13a41.82,41.82,0,0,1-4.24-1.53,29.24,29.24,0,0,1-3.74-1.92,17.09,17.09,0,0,1-5.81-6q-2.18-3.69-2.17-9.8a19.64,19.64,0,0,1,1.87-8.37,19.41,19.41,0,0,1,4.78-6.46,23.7,23.7,0,0,1,6.45-4,29.75,29.75,0,0,1,7.39-2,55.1,55.1,0,0,1,7.68-.55,51.28,51.28,0,0,1,12.56,1.58A42.83,42.83,0,0,1,761,196q-2.26,3.84-4.23,7.34c-1.32,2.33-2.73,4.77-4.24,7.34a64.94,64.94,0,0,0-9.41-4,29.9,29.9,0,0,0-9.4-1.43c-.66,0-1.4,0-2.22.05a7.09,7.09,0,0,0-2.26.44,4.79,4.79,0,0,0-1.78,1.18,3.21,3.21,0,0,0-.74,2.27,3.2,3.2,0,0,0,2.22,3,29.25,29.25,0,0,0,3.6,1.13q2.16.6,4.77,1.14t5.37,1.33q2.76.69,5.62,1.62a29.75,29.75,0,0,1,5.36,2.37,23,23,0,0,1,4.54,3.34,14.4,14.4,0,0,1,3.2,4.59,16.18,16.18,0,0,1,1.23,4.23,29.42,29.42,0,0,1,.34,4.43,18.51,18.51,0,0,1-9.4,17.24,28.43,28.43,0,0,1-9.36,3.4A58.1,58.1,0,0,1,733.92,257.92Z"/><path class="cls-1" d="M781.66,255.86V191h19v64.91Z"/><path class="cls-1" d="M851.37,257.83a32.28,32.28,0,0,1-13.29-2.76,34.55,34.55,0,0,1,0-63.24,32.28,32.28,0,0,1,13.29-2.76,33.28,33.28,0,0,1,12.51,2.42,38.43,38.43,0,0,1,11.52,7.43l-14.08,12.41q-5.13-3.63-9.85-3.64a14.15,14.15,0,0,0-6,1.28,15.12,15.12,0,0,0-4.78,3.45,16.75,16.75,0,0,0-3.2,5,15.55,15.55,0,0,0-1.18,6,16.67,16.67,0,0,0,1.13,6.06,15.84,15.84,0,0,0,3.15,5.07,15.12,15.12,0,0,0,4.78,3.45,14.15,14.15,0,0,0,6,1.28q7.49,0,13-7.29l14.48,12a38.08,38.08,0,0,1-12.51,10.29A33,33,0,0,1,851.37,257.83Z"/></svg>