<svg id="Layer_1" data-name="Layer 1" xmlns="http://www.w3.org/2000/svg" viewBox="0 0 876.63 253.91"><defs><style>.cls-1{fill:rgba(255, 255, 255, 0.5);}</style></defs><path class="cls-1" d="M116.57,99.72A53.63,53.63,0,0,0,133,81.3a49.06,49.06,0,0,0,5.92-23.69,60.94,60.94,0,0,0-2.31-16.1,47.64,47.64,0,0,0-6.69-14.8,65.32,65.32,0,0,0-8.54-9.87,75,75,0,0,0-11-8.66A61.27,61.27,0,0,0,98.16,2a36.46,36.46,0,0,0-12.5-2.3H.38V169.87H47.3L45.9,74.28h-.14V37.66H72.29a19.64,19.64,0,0,1,7.45,1.43A19.13,19.13,0,0,1,90,48.79a17.55,17.55,0,0,1,0,14.38A19.28,19.28,0,0,1,85.88,69a19.48,19.48,0,0,1-6.14,3.92,19.82,19.82,0,0,1-7.45,1.41H51.13l24.4,43h.27l29.6,52.62h51.07Z"/><path class="cls-1" d="M309.73-.26V169.87H174V129.31h91.42V105H174V64.42h91.42V40.08H174V-.26Z"/><path class="cls-1" d="M408,169.87H331.87V-.26H408a83.64,83.64,0,0,1,33.32,6.68,87.33,87.33,0,0,1,27.19,18.2A85,85,0,0,1,486.77,51.7a83.12,83.12,0,0,1,6.68,33.11,83.11,83.11,0,0,1-6.68,33.1A85,85,0,0,1,468.46,145a87.16,87.16,0,0,1-27.19,18.2A83.47,83.47,0,0,1,408,169.87ZM402.69,41.18H376.6v87.25h26.09a43.32,43.32,0,0,0,40.45-26.63,44.18,44.18,0,0,0,0-34,43.46,43.46,0,0,0-40.45-26.63Z"/><path class="cls-1" d="M647.8,169.87V82.39l-36.39,60.08a3.38,3.38,0,0,1-2.2,1.75,9.52,9.52,0,0,1-2.63.44,10.16,10.16,0,0,1-2.85-.44,3.36,3.36,0,0,1-2.19-1.75L565.15,82.39v87.48H520.64V-.26H562.3a4.58,4.58,0,0,1,3.72,2L606.36,69,646.92,1.71a4.44,4.44,0,0,1,3.51-2h41.88V169.87Z"/><path class="cls-1" d="M813.33-.26H773.21L710.28,169.87h48l8.77-23.45,12.72-39.69,13.59-44.94,13.37,44.94,12.72,39.69,8.77,23.45h48Z"/><rect class="cls-1" x="309.73" y="236.62" width="17.43" height="17.43"/><path class="cls-1" d="M366.45,233.92h-11.7v20H337.5V189.53h28.95a25.59,25.59,0,0,1,8.92,1.58,24.56,24.56,0,0,1,7.55,4.4,21.21,21.21,0,0,1,5.22,6.8,19.56,19.56,0,0,1,1.95,8.71,20.77,20.77,0,0,1-1.95,9,23.94,23.94,0,0,1-5.22,7.26,24.72,24.72,0,0,1-7.55,4.89A22.92,22.92,0,0,1,366.45,233.92Zm-1.25-30h-10v13.85h10a7.56,7.56,0,0,0,2.82-.53,7.43,7.43,0,0,0,2.33-1.49,7.18,7.18,0,0,0,1.57-2.18,6.69,6.69,0,0,0,0-5.45,7.18,7.18,0,0,0-1.57-2.18,7.26,7.26,0,0,0-2.33-1.49A7.56,7.56,0,0,0,365.2,203.89Z"/><path class="cls-1" d="M428.5,254.16a31.91,31.91,0,0,1-12.67-2.52,32.39,32.39,0,0,1-17.28-17.16,32.26,32.26,0,0,1,0-25.19,32.58,32.58,0,0,1,7-10.27,33.39,33.39,0,0,1,10.31-6.93,32.56,32.56,0,0,1,25.31,0A33.34,33.34,0,0,1,451.49,199a32.39,32.39,0,0,1,7,10.27,32.26,32.26,0,0,1,0,25.19,32.49,32.49,0,0,1-29.95,19.68Zm0-49a14.91,14.91,0,0,0-6.41,1.38,16.32,16.32,0,0,0-5.08,3.66,17.37,17.37,0,0,0,0,23.46,16.32,16.32,0,0,0,5.08,3.66,15.7,15.7,0,0,0,12.83,0,16.16,16.16,0,0,0,5.07-3.66,16.94,16.94,0,0,0,3.35-5.36,17.37,17.37,0,0,0,0-12.79,16.93,16.93,0,0,0-3.35-5.31,16.16,16.16,0,0,0-5.07-3.66A15,15,0,0,0,428.5,205.12Z"/><path class="cls-1" d="M510.71,253.91,499.51,234H488.65l.08,19.91H471V189.53h32.27a13.66,13.66,0,0,1,4.73.88,22.61,22.61,0,0,1,4.64,2.32,28.11,28.11,0,0,1,4.15,3.28,24.33,24.33,0,0,1,3.23,3.73,18.31,18.31,0,0,1,2.54,5.6,23.2,23.2,0,0,1,.87,6.1,18.64,18.64,0,0,1-2.24,9,20.31,20.31,0,0,1-6.23,7L530,253.91Zm-12.52-50h-10v13.85h10a7.64,7.64,0,0,0,2.82-.53,7.35,7.35,0,0,0,3.9-3.67,6.69,6.69,0,0,0,0-5.45,7.38,7.38,0,0,0-1.58-2.18,7.21,7.21,0,0,0-2.32-1.49A7.64,7.64,0,0,0,498.19,203.89Z"/><path class="cls-1" d="M584.71,205.46H567v48.45h-17.5V205.46H531.87l-1.16-1.16V189.53h55.16V204.3Z"/><path class="cls-1" d="M612.17,205.38v8.79h29.54v15.68H612.17v24.06H595v-63l1.33-1.33h49.36v15.85Z"/><path class="cls-1" d="M683.77,254.16a32,32,0,0,1-12.68-2.52,32.39,32.39,0,0,1-17.28-17.16,32.38,32.38,0,0,1,0-25.19,32.58,32.58,0,0,1,7-10.27,33.51,33.51,0,0,1,10.31-6.93,32.56,32.56,0,0,1,25.31,0A33.34,33.34,0,0,1,706.75,199a32.58,32.58,0,0,1,7,10.27,32.38,32.38,0,0,1,0,25.19,32.29,32.29,0,0,1-17.32,17.16A32,32,0,0,1,683.77,254.16Zm0-49a15,15,0,0,0-6.42,1.38,16.32,16.32,0,0,0-5.08,3.66,17.09,17.09,0,0,0-3.34,5.31,17.37,17.37,0,0,0,0,12.79,17.1,17.1,0,0,0,3.34,5.36,16.32,16.32,0,0,0,5.08,3.66,15.7,15.7,0,0,0,12.83,0,16.32,16.32,0,0,0,5.08-3.66,17.49,17.49,0,0,0,4.56-11.73,16.9,16.9,0,0,0-1.22-6.42,17.09,17.09,0,0,0-3.34-5.31,16.32,16.32,0,0,0-5.08-3.66A15,15,0,0,0,683.77,205.12Z"/><path class="cls-1" d="M724.91,253.91V189.53h17.84V238H776.6v15.93Z"/><path class="cls-1" d="M782.15,253.91V189.53h17.34v64.38Z"/><path class="cls-1" d="M844.12,254.16a32,32,0,0,1-12.67-2.52,32.39,32.39,0,0,1-17.28-17.16,32.26,32.26,0,0,1,0-25.19,32.58,32.58,0,0,1,7-10.27,33.39,33.39,0,0,1,10.31-6.93,32.56,32.56,0,0,1,25.31,0A33.34,33.34,0,0,1,867.11,199a32.39,32.39,0,0,1,7,10.27,32.26,32.26,0,0,1,0,25.19,32.49,32.49,0,0,1-30,19.68Zm0-49a14.94,14.94,0,0,0-6.41,1.38,16.32,16.32,0,0,0-5.08,3.66,17.4,17.4,0,0,0,0,23.46,16.32,16.32,0,0,0,5.08,3.66,15.7,15.7,0,0,0,12.83,0,16.32,16.32,0,0,0,5.08-3.66,17.33,17.33,0,0,0,0-23.46,16.32,16.32,0,0,0-5.08-3.66A15,15,0,0,0,844.12,205.12Z"/></svg>