<svg id="Layer_1" data-name="Layer 1" xmlns="http://www.w3.org/2000/svg" viewBox="0 0 876.63 257.12"><defs><style>.cls-1{fill:rgba(255, 255, 255, 0.5);}</style></defs><path class="cls-1" d="M116.57,101.32A53.45,53.45,0,0,0,133,82.9a49,49,0,0,0,5.92-23.68,61.07,61.07,0,0,0-2.31-16.11,47.64,47.64,0,0,0-6.69-14.8,65.32,65.32,0,0,0-8.54-9.87,74.22,74.22,0,0,0-11-8.65A60.79,60.79,0,0,0,98.16,3.64a36.7,36.7,0,0,0-12.5-2.3H.38V171.48H47.3l-1.4-95.6h-.14V39.27H72.29a19.64,19.64,0,0,1,7.45,1.42A19.23,19.23,0,0,1,90,50.39a17.58,17.58,0,0,1,0,14.39,19.11,19.11,0,0,1-4.16,5.77,19.31,19.31,0,0,1-6.14,3.92,19.63,19.63,0,0,1-7.45,1.41H51.13l24.4,43h.27l29.6,52.63h51.07Z"/><path class="cls-1" d="M309.73,1.34V171.48H174V130.92h91.42V106.58H174V66h91.42V41.68H174V1.34Z"/><path class="cls-1" d="M408,171.48H331.87V1.34H408A83.48,83.48,0,0,1,441.27,8a87,87,0,0,1,27.19,18.2A85,85,0,0,1,486.77,53.3a83.15,83.15,0,0,1,6.68,33.11,83.07,83.07,0,0,1-6.68,33.1,84.78,84.78,0,0,1-18.31,27.08,87,87,0,0,1-27.19,18.2A83.48,83.48,0,0,1,408,171.48Zm-5.26-128.7H376.6V130h26.09a43.34,43.34,0,0,0,40.45-26.64,44.15,44.15,0,0,0,0-34,43.51,43.51,0,0,0-40.45-26.64Z"/><path class="cls-1" d="M647.8,171.48V84l-36.39,60.07a3.35,3.35,0,0,1-2.2,1.75,9.52,9.52,0,0,1-2.63.44,10.16,10.16,0,0,1-2.85-.44,3.34,3.34,0,0,1-2.19-1.75L565.15,84v87.48H520.64V1.34H562.3a4.58,4.58,0,0,1,3.72,2l40.34,67.31L646.92,3.31a4.44,4.44,0,0,1,3.51-2h41.88V171.48Z"/><path class="cls-1" d="M813.33,1.34H773.21L710.28,171.48h48L767.07,148l12.72-39.69,13.59-44.94,13.37,44.94L819.47,148l8.77,23.46h48Z"/><rect class="cls-1" x="410.07" y="238.22" width="17.43" height="17.43"/><path class="cls-1" d="M462.73,255.27a51.26,51.26,0,0,1-12.06-1.44,59.75,59.75,0,0,1-11.43-4,2.73,2.73,0,0,1-.78-.31c-.41-.25-.62-.44-.62-.54a2.74,2.74,0,0,1,.31-.62l.78-1.36c.31-.54.68-1.16,1.09-1.86s.84-1.41,1.25-2.13q1.34-2.17,2.5-4.13c.78-1.3,1.33-2.23,1.64-2.81a14.56,14.56,0,0,1,1.95.94,45.33,45.33,0,0,0,8.46,3.24,35.14,35.14,0,0,0,9,1.13q1.34,0,2.85-.12a10.23,10.23,0,0,0,2.77-.58,4.93,4.93,0,0,0,2.07-1.45,4.24,4.24,0,0,0,.82-2.77,2.61,2.61,0,0,0-.47-1.53,5,5,0,0,0-1.17-1.17,11,11,0,0,0-3-1.52,18.75,18.75,0,0,0-3.35-.94c-1.15-.21-2.29-.44-3.43-.7-1.51-.37-3-.71-4.45-1s-2.86-.68-4.21-1.09-2.75-.88-4-1.37a21.34,21.34,0,0,1-3.55-1.76,15.1,15.1,0,0,1-5.34-5.43,17.73,17.73,0,0,1-2-9,19.09,19.09,0,0,1,.42-3.95,17.46,17.46,0,0,1,1.29-3.79,17.84,17.84,0,0,1,4.45-5.94,21.54,21.54,0,0,1,6.05-3.67,31,31,0,0,1,7-1.88,50.22,50.22,0,0,1,7.33-.54,48.93,48.93,0,0,1,11.86,1.45,39,39,0,0,1,11.16,4.74q-2,3.3-3.79,6.47c-1.22,2.12-2.46,4.27-3.7,6.45a75,75,0,0,0-8.78-3.59,29.27,29.27,0,0,0-9.17-1.4c-.78,0-1.6,0-2.45.11a7.84,7.84,0,0,0-2.38.59,4.53,4.53,0,0,0-1.8,1.36,3.74,3.74,0,0,0-.7,2.38,3.58,3.58,0,0,0,.47,1.87,4.51,4.51,0,0,0,2,1.52,21.19,21.19,0,0,0,3.55,1.2c1.4.37,2.93.72,4.6,1.06s3.41.74,5.23,1.2,3.55,1,5.34,1.6a32,32,0,0,1,5.07,2.18,20.31,20.31,0,0,1,4.25,3,13,13,0,0,1,3,4.17,13.58,13.58,0,0,1,1.17,3.85,28.48,28.48,0,0,1,.31,4.09,16.83,16.83,0,0,1-8.74,15.77,27.82,27.82,0,0,1-8.81,3.12A54.55,54.55,0,0,1,462.73,255.27Z"/><path class="cls-1" d="M550.33,207h-17.6v48.27H515.29V207h-17.6l-1.16-1.15V191.14h55v14.71Z"/><path class="cls-1" d="M586,255.51A31.7,31.7,0,0,1,573.41,253a32.23,32.23,0,0,1-17.21-17.09,32.13,32.13,0,0,1,0-25.09,32.16,32.16,0,0,1,6.94-10.23,33,33,0,0,1,10.27-6.9,32.43,32.43,0,0,1,25.21,0,33,33,0,0,1,10.31,6.9,32.49,32.49,0,0,1,6.94,10.23,32.13,32.13,0,0,1,0,25.09A32.12,32.12,0,0,1,598.62,253,31.84,31.84,0,0,1,586,255.51Zm0-48.85a14.85,14.85,0,0,0-6.39,1.38,16.17,16.17,0,0,0-5.06,3.64,17.31,17.31,0,0,0,0,23.37,16.36,16.36,0,0,0,5.06,3.65,15.59,15.59,0,0,0,12.78,0,16.36,16.36,0,0,0,5.06-3.65,17.25,17.25,0,0,0,0-23.37,16.17,16.17,0,0,0-5.06-3.64A14.85,14.85,0,0,0,586,206.66Z"/><path class="cls-1" d="M667.93,255.27l-11.16-19.84H645.94l.09,19.84H628.34V191.14h32.15a13.76,13.76,0,0,1,4.71.87,22.49,22.49,0,0,1,4.63,2.31,28.34,28.34,0,0,1,4.13,3.26,25.77,25.77,0,0,1,3.22,3.72,18.27,18.27,0,0,1,2.52,5.58,23,23,0,0,1,.87,6.07,18.46,18.46,0,0,1-2.23,8.93,20.17,20.17,0,0,1-6.2,6.94l15,26.45Zm-12.48-49.83h-10v13.8h10a7.4,7.4,0,0,0,2.81-.54,7.14,7.14,0,0,0,2.31-1.48,7.31,7.31,0,0,0,1.57-2.17,6.62,6.62,0,0,0,0-5.42,7.22,7.22,0,0,0-1.57-2.18,7.31,7.31,0,0,0-2.31-1.48A7.39,7.39,0,0,0,655.45,205.44Z"/><path class="cls-1" d="M734,255.27l-3.31-8.85H711l-3.31,8.85H689.58l23.71-64.13h15.13l23.71,64.13ZM720.9,214.52l-5.13,16.95h10.17Z"/><path class="cls-1" d="M799.09,253.39v-1.71a32.16,32.16,0,0,1-14.82,3.59,31.65,31.65,0,0,1-22.71-9.33,31.18,31.18,0,0,1-6.7-10.14,33.1,33.1,0,0,1,0-24.92,32.44,32.44,0,0,1,6.79-10.26,32.08,32.08,0,0,1,10.14-7,31.93,31.93,0,0,1,26.14.55,33.38,33.38,0,0,1,11.19,8.7l-13.26,8.81a17.51,17.51,0,0,0-5.34-3.7,15.21,15.21,0,0,0-6.2-1.29,14.85,14.85,0,0,0-6.36,1.37,16.39,16.39,0,0,0-8.43,8.89,16.78,16.78,0,0,0-1.21,6.36,17,17,0,0,0,1.21,6.39,16.16,16.16,0,0,0,3.4,5.31,16.84,16.84,0,0,0,5.11,3.63,14.8,14.8,0,0,0,6.35,1.36A15.8,15.8,0,0,0,797,233.81H786.3V219.22h26.6v34.17Z"/><path class="cls-1" d="M825.1,255.27V191.14h51.15v15.29H841.79v9.17h32.48v15.29H841.79v9.17h34.46v15.21Z"/></svg>